<mxfile host="app.diagrams.net" modified="2021-03-31T00:31:52.673Z" agent="5.0 (Windows NT 10.0; Win64; x64) AppleWebKit/537.36 (KHTML, like Gecko) Chrome/89.0.4389.90 Safari/537.36" etag="HqzLUOrCvUd2l8sD58FK" version="14.5.3" type="github">
  <diagram id="C5RBs43oDa-KdzZeNtuy" name="Page-1">
    <mxGraphModel dx="751" dy="715" grid="1" gridSize="10" guides="1" tooltips="1" connect="1" arrows="1" fold="1" page="1" pageScale="1" pageWidth="827" pageHeight="1169" math="0" shadow="0">
      <root>
        <mxCell id="WIyWlLk6GJQsqaUBKTNV-0" />
        <mxCell id="WIyWlLk6GJQsqaUBKTNV-1" parent="WIyWlLk6GJQsqaUBKTNV-0" />
        <mxCell id="WIyWlLk6GJQsqaUBKTNV-2" value="" style="rounded=0;html=1;jettySize=auto;orthogonalLoop=1;fontSize=11;endArrow=block;endFill=0;endSize=8;strokeWidth=1;shadow=0;labelBackgroundColor=none;edgeStyle=orthogonalEdgeStyle;" parent="WIyWlLk6GJQsqaUBKTNV-1" source="WIyWlLk6GJQsqaUBKTNV-3" edge="1">
          <mxGeometry relative="1" as="geometry">
            <mxPoint x="329" y="120" as="targetPoint" />
          </mxGeometry>
        </mxCell>
        <mxCell id="WIyWlLk6GJQsqaUBKTNV-3" value="&lt;b&gt;Start&lt;/b&gt;" style="rounded=1;whiteSpace=wrap;html=1;fontSize=12;glass=0;strokeWidth=1;shadow=0;" parent="WIyWlLk6GJQsqaUBKTNV-1" vertex="1">
          <mxGeometry x="289" y="60" width="80" height="20" as="geometry" />
        </mxCell>
        <mxCell id="UjBsk53GGln_JCo3Jnv4-3" value="let x be a list" style="shape=parallelogram;perimeter=parallelogramPerimeter;whiteSpace=wrap;html=1;fixedSize=1;" vertex="1" parent="WIyWlLk6GJQsqaUBKTNV-1">
          <mxGeometry x="266.03999999999996" y="120" width="122.96" height="30" as="geometry" />
        </mxCell>
        <mxCell id="UjBsk53GGln_JCo3Jnv4-4" value="let y = input numbers from user" style="shape=parallelogram;perimeter=parallelogramPerimeter;whiteSpace=wrap;html=1;fixedSize=1;" vertex="1" parent="WIyWlLk6GJQsqaUBKTNV-1">
          <mxGeometry x="229" y="180" width="200" height="40" as="geometry" />
        </mxCell>
        <mxCell id="UjBsk53GGln_JCo3Jnv4-5" value="" style="endArrow=classic;html=1;" edge="1" parent="WIyWlLk6GJQsqaUBKTNV-1">
          <mxGeometry width="50" height="50" relative="1" as="geometry">
            <mxPoint x="329.15999999999997" y="150" as="sourcePoint" />
            <mxPoint x="328.65999999999997" y="180" as="targetPoint" />
          </mxGeometry>
        </mxCell>
        <mxCell id="UjBsk53GGln_JCo3Jnv4-7" value="Is y = 0?" style="rhombus;whiteSpace=wrap;html=1;" vertex="1" parent="WIyWlLk6GJQsqaUBKTNV-1">
          <mxGeometry x="289" y="250" width="80" height="80" as="geometry" />
        </mxCell>
        <mxCell id="UjBsk53GGln_JCo3Jnv4-10" value="" style="endArrow=classic;html=1;" edge="1" parent="WIyWlLk6GJQsqaUBKTNV-1">
          <mxGeometry width="50" height="50" relative="1" as="geometry">
            <mxPoint x="329" y="220" as="sourcePoint" />
            <mxPoint x="329" y="250" as="targetPoint" />
          </mxGeometry>
        </mxCell>
        <mxCell id="UjBsk53GGln_JCo3Jnv4-11" value="" style="endArrow=classic;html=1;" edge="1" parent="WIyWlLk6GJQsqaUBKTNV-1">
          <mxGeometry width="50" height="50" relative="1" as="geometry">
            <mxPoint x="328.5" y="330" as="sourcePoint" />
            <mxPoint x="329" y="400" as="targetPoint" />
          </mxGeometry>
        </mxCell>
        <mxCell id="UjBsk53GGln_JCo3Jnv4-12" value="No" style="text;html=1;align=center;verticalAlign=middle;resizable=0;points=[];autosize=1;" vertex="1" parent="WIyWlLk6GJQsqaUBKTNV-1">
          <mxGeometry x="329" y="350" width="30" height="20" as="geometry" />
        </mxCell>
        <mxCell id="UjBsk53GGln_JCo3Jnv4-13" value="Yes" style="text;html=1;align=center;verticalAlign=middle;resizable=0;points=[];autosize=1;" vertex="1" parent="WIyWlLk6GJQsqaUBKTNV-1">
          <mxGeometry x="379" y="270" width="30" height="20" as="geometry" />
        </mxCell>
        <mxCell id="UjBsk53GGln_JCo3Jnv4-16" value="" style="endArrow=classic;html=1;" edge="1" parent="WIyWlLk6GJQsqaUBKTNV-1">
          <mxGeometry width="50" height="50" relative="1" as="geometry">
            <mxPoint x="369" y="289.58" as="sourcePoint" />
            <mxPoint x="429" y="289.58" as="targetPoint" />
          </mxGeometry>
        </mxCell>
        <mxCell id="UjBsk53GGln_JCo3Jnv4-19" value="Append converted numbers into list x" style="rounded=0;whiteSpace=wrap;html=1;" vertex="1" parent="WIyWlLk6GJQsqaUBKTNV-1">
          <mxGeometry x="66.88" y="405" width="126.25" height="50" as="geometry" />
        </mxCell>
        <mxCell id="UjBsk53GGln_JCo3Jnv4-24" value="" style="endArrow=classic;html=1;entryX=0;entryY=0.5;entryDx=0;entryDy=0;exitX=1;exitY=0.5;exitDx=0;exitDy=0;" edge="1" parent="WIyWlLk6GJQsqaUBKTNV-1" source="UjBsk53GGln_JCo3Jnv4-42" target="UjBsk53GGln_JCo3Jnv4-7">
          <mxGeometry width="50" height="50" relative="1" as="geometry">
            <mxPoint x="229" y="289.71" as="sourcePoint" />
            <mxPoint x="279" y="289.71" as="targetPoint" />
          </mxGeometry>
        </mxCell>
        <mxCell id="UjBsk53GGln_JCo3Jnv4-27" value="print highest number under list x" style="rounded=0;whiteSpace=wrap;html=1;" vertex="1" parent="WIyWlLk6GJQsqaUBKTNV-1">
          <mxGeometry x="429" y="270" width="130" height="40" as="geometry" />
        </mxCell>
        <mxCell id="UjBsk53GGln_JCo3Jnv4-28" value="print the average series of numbers in list x" style="rounded=0;whiteSpace=wrap;html=1;" vertex="1" parent="WIyWlLk6GJQsqaUBKTNV-1">
          <mxGeometry x="599" y="270" width="150" height="40" as="geometry" />
        </mxCell>
        <mxCell id="UjBsk53GGln_JCo3Jnv4-29" value="" style="endArrow=classic;html=1;" edge="1" parent="WIyWlLk6GJQsqaUBKTNV-1">
          <mxGeometry width="50" height="50" relative="1" as="geometry">
            <mxPoint x="559" y="290" as="sourcePoint" />
            <mxPoint x="599" y="290" as="targetPoint" />
          </mxGeometry>
        </mxCell>
        <mxCell id="UjBsk53GGln_JCo3Jnv4-30" value="print the smallest number under the value x" style="rounded=0;whiteSpace=wrap;html=1;" vertex="1" parent="WIyWlLk6GJQsqaUBKTNV-1">
          <mxGeometry x="601.5" y="340" width="145" height="60" as="geometry" />
        </mxCell>
        <mxCell id="UjBsk53GGln_JCo3Jnv4-31" value="" style="endArrow=classic;html=1;" edge="1" parent="WIyWlLk6GJQsqaUBKTNV-1">
          <mxGeometry width="50" height="50" relative="1" as="geometry">
            <mxPoint x="673.76" y="310" as="sourcePoint" />
            <mxPoint x="674" y="340" as="targetPoint" />
          </mxGeometry>
        </mxCell>
        <mxCell id="UjBsk53GGln_JCo3Jnv4-32" value="&lt;b&gt;End&lt;/b&gt;" style="rounded=1;whiteSpace=wrap;html=1;" vertex="1" parent="WIyWlLk6GJQsqaUBKTNV-1">
          <mxGeometry x="631.5" y="440" width="85" height="30" as="geometry" />
        </mxCell>
        <mxCell id="UjBsk53GGln_JCo3Jnv4-34" value="" style="endArrow=classic;html=1;entryX=0.5;entryY=0;entryDx=0;entryDy=0;" edge="1" parent="WIyWlLk6GJQsqaUBKTNV-1" target="UjBsk53GGln_JCo3Jnv4-32">
          <mxGeometry width="50" height="50" relative="1" as="geometry">
            <mxPoint x="673.66" y="400" as="sourcePoint" />
            <mxPoint x="673.66" y="430" as="targetPoint" />
          </mxGeometry>
        </mxCell>
        <mxCell id="UjBsk53GGln_JCo3Jnv4-35" value="Convert string into integer for every user input" style="rounded=0;whiteSpace=wrap;html=1;" vertex="1" parent="WIyWlLk6GJQsqaUBKTNV-1">
          <mxGeometry x="267.52" y="400" width="120" height="60" as="geometry" />
        </mxCell>
        <mxCell id="UjBsk53GGln_JCo3Jnv4-42" value="&lt;font style=&quot;font-size: 10px&quot;&gt;let y = input numbers from user&lt;/font&gt;" style="shape=parallelogram;perimeter=parallelogramPerimeter;whiteSpace=wrap;html=1;fixedSize=1;" vertex="1" parent="WIyWlLk6GJQsqaUBKTNV-1">
          <mxGeometry x="40" y="280" width="180" height="20" as="geometry" />
        </mxCell>
        <mxCell id="UjBsk53GGln_JCo3Jnv4-43" value="" style="endArrow=classic;html=1;entryX=1;entryY=0.5;entryDx=0;entryDy=0;" edge="1" parent="WIyWlLk6GJQsqaUBKTNV-1" target="UjBsk53GGln_JCo3Jnv4-19">
          <mxGeometry width="50" height="50" relative="1" as="geometry">
            <mxPoint x="266.04" y="429.58" as="sourcePoint" />
            <mxPoint x="200" y="430" as="targetPoint" />
          </mxGeometry>
        </mxCell>
        <mxCell id="UjBsk53GGln_JCo3Jnv4-44" value="" style="endArrow=classic;html=1;entryX=0.5;entryY=1;entryDx=0;entryDy=0;" edge="1" parent="WIyWlLk6GJQsqaUBKTNV-1" target="UjBsk53GGln_JCo3Jnv4-42">
          <mxGeometry width="50" height="50" relative="1" as="geometry">
            <mxPoint x="130" y="405" as="sourcePoint" />
            <mxPoint x="180" y="355" as="targetPoint" />
          </mxGeometry>
        </mxCell>
      </root>
    </mxGraphModel>
  </diagram>
</mxfile>
